<svg width="17" height="17" viewBox="0 0 17 17" fill="none" xmlns="http://www.w3.org/2000/svg">
<path d="M14.5104 2.42628C12.905 0.86172 10.7704 0 8.5 0C6.2296 0 4.09501 0.861687 2.48957 2.42628C0.884199 3.9909 0 6.07122 0 8.2839C0 10.4967 0.884166 12.5769 2.48957 14.1415C4.09501 15.7061 6.2296 16.5678 8.5 16.5678C10.7704 16.5678 12.905 15.7061 14.5104 14.1415C16.1158 12.5769 17 10.4967 17 8.2839C17 6.07122 16.1158 3.9909 14.5104 2.42628ZM12.1765 10.7227C12.5006 11.0387 12.5006 11.5509 12.1765 11.8668C12.0144 12.0248 11.8019 12.1038 11.5895 12.1038C11.377 12.1038 11.1646 12.0248 11.0024 11.8668L8.5 9.42795L5.99758 11.8669C5.83545 12.0248 5.62302 12.1038 5.41055 12.1038C5.19808 12.1038 4.98565 12.0248 4.82352 11.8669C4.49942 11.5509 4.49942 11.0387 4.82352 10.7228L7.3261 8.2839L4.82352 5.8451C4.49942 5.52908 4.49942 5.0169 4.82352 4.70101C5.14778 4.38503 5.67332 4.38503 5.99745 4.70101L8.5 7.13985L11.0024 4.70101C11.3267 4.38516 11.8522 4.38503 12.1763 4.70101C12.5006 5.0169 12.5006 5.52908 12.1763 5.8451L9.6739 8.2839L12.1765 10.7227Z" fill="#666666"/>
</svg>
