<svg width="57" height="58" viewBox="0 0 57 58" fill="none" xmlns="http://www.w3.org/2000/svg">
<path d="M52.5908 0.856201H3.84082C1.76895 0.856201 0.0908203 2.53433 0.0908203 4.6062V53.3562C0.0908203 55.4281 1.76895 57.1062 3.84082 57.1062H52.5908C54.6627 57.1062 56.3408 55.4281 56.3408 53.3562V4.6062C56.3408 2.53433 54.6627 0.856201 52.5908 0.856201Z" fill="#264F36"/>
<path d="M49.6377 0.856201H3.60646C1.67052 0.870264 0.104893 2.43589 0.0908308 4.37183V50.2625C0.0861433 52.2031 1.65646 53.7734 3.59708 53.7781C3.60177 53.7781 3.60177 53.7781 3.60646 53.7781H49.5908C51.5315 53.7828 53.1018 52.2125 53.1065 50.2718C53.1065 50.2671 53.1065 50.2671 53.1065 50.2625V4.37183C53.1486 2.47339 51.6393 0.898389 49.7408 0.856201C49.708 0.856201 49.6705 0.856201 49.6377 0.856201Z" fill="#264F36"/>
<path opacity="0.3" d="M16.8242 5.02806C16.8242 3.94994 16.0742 3.62181 11.7617 3.76244C8.15234 3.90306 6.37109 4.32494 5.29297 5.63744C4.21484 6.94994 3.93359 9.62181 3.88672 12.8093C3.88672 15.0593 3.88672 17.1687 5.05859 17.1687C6.65234 17.1687 6.65234 13.4656 7.96484 11.4031C10.4961 7.32494 16.8242 6.43431 16.8242 5.02806Z" fill="white"/>
<path d="M18.2786 50.3093C16.4224 50.3609 14.7583 49.1749 14.2005 47.403L7.12237 26.0749C6.438 23.8202 7.713 21.4343 9.96769 20.7499C12.1474 20.089 14.463 21.2562 15.2317 23.403L19.8255 37.2312L41.9036 9.29366C43.3661 7.4421 46.0521 7.12804 47.9036 8.59054C49.7552 10.053 50.0692 12.739 48.6067 14.5905L21.6067 48.6687C20.8052 49.6952 19.5817 50.2999 18.2786 50.3093Z" fill="#FBF9F9"/>
</svg>
