<?xml version="1.0" encoding="utf-8"?><svg viewBox="0 0 14 13" xmlns="http://www.w3.org/2000/svg" xmlns:xlink="http://www.w3.org/1999/xlink"><style>:root>svg{display:none}:root>svg:target{display:block}</style><svg viewBox="0 0 11 12" id="inst" xmlns="http://www.w3.org/2000/svg"><path d="M10.972 3.235c-.026-.585-.12-.987-.256-1.335-.14-.37-.354-.7-.636-.976A2.708 2.708 0 009.106.29c-.35-.135-.75-.23-1.334-.256C7.182.006 6.996 0 5.502 0s-1.68.006-2.267.032C2.65.058 2.248.152 1.9.288c-.37.14-.7.355-.976.636-.28.275-.496.608-.634.974-.135.35-.23.75-.256 1.334-.028.59-.034.776-.034 2.27s.006 1.68.032 2.268c.026.584.12.986.256 1.334.14.37.357.701.636.976.275.28.608.497.974.634.35.136.75.23 1.335.256.586.026.773.032 2.267.032 1.494 0 1.68-.006 2.268-.032.584-.026.986-.12 1.334-.256a2.815 2.815 0 001.61-1.61c.135-.35.23-.75.256-1.334.026-.587.032-.774.032-2.268 0-1.494-.002-1.68-.028-2.267zm-.99 4.492c-.024.537-.115.827-.19 1.02-.185.48-.565.86-1.044 1.045-.194.075-.486.166-1.021.19-.58.025-.755.031-2.223.031s-1.644-.006-2.222-.032c-.537-.023-.828-.114-1.021-.189a1.693 1.693 0 01-.632-.41 1.71 1.71 0 01-.41-.632c-.076-.194-.166-.486-.19-1.021-.025-.58-.032-.755-.032-2.223s.007-1.644.033-2.222c.023-.537.113-.827.189-1.02.088-.24.227-.456.412-.633.179-.182.394-.322.632-.41.194-.075.486-.166 1.021-.19C3.864 1.007 4.04 1 5.506 1c1.47 0 1.645.007 2.223.033.537.023.827.114 1.02.189.24.088.456.228.633.41.182.179.322.394.41.632.075.194.166.486.19 1.021.025.58.032.754.032 2.222s-.007 1.64-.033 2.22z"/><path d="M5.502 2.676a2.827 2.827 0 10.001 5.654 2.827 2.827 0 000-5.654zm0 4.66a1.834 1.834 0 110-3.668 1.834 1.834 0 010 3.667zM9.1 2.563a.66.66 0 11-1.32 0 .66.66 0 011.32 0z"/></svg><svg viewBox="0 0 11 13" id="tt" xmlns="http://www.w3.org/2000/svg"><path d="M10.994 3.255a3.08 3.08 0 01-1.906-.661 3.3 3.3 0 01-1.2-1.98A3.423 3.423 0 017.829 0H5.784v5.8L5.78 8.977c0 .85-.533 1.57-1.271 1.823a1.796 1.796 0 01-1.533-.175 1.935 1.935 0 01-.905-1.619c-.015-1.074.821-1.95 1.855-1.95.204 0 .4.035.583.098V4.999A3.858 3.858 0 00.975 6.322a4.062 4.062 0 00-.967 2.401 4.062 4.062 0 001.51 3.433 3.827 3.827 0 002.992.799 3.856 3.856 0 002.183-1.133A4.05 4.05 0 007.84 8.994l-.01-4.745c.352.282.737.516 1.147.696A5.003 5.003 0 0011 5.368V3.255h-.006z"/></svg><svg viewBox="0 0 14 8" id="vk" xmlns="http://www.w3.org/2000/svg"><path d="M12.413 3.345c.2-.258.357-.465.474-.621.84-1.12 1.205-1.834 1.093-2.146l-.043-.073c-.03-.044-.105-.084-.226-.12a1.151 1.151 0 00-.467-.019l-2.1.015a.596.596 0 00-.24.025l-.036.018-.03.022a.324.324 0 00-.08.077.497.497 0 00-.072.128 11.918 11.918 0 01-.78 1.642c-.18.302-.345.564-.496.785-.15.222-.277.385-.379.49a2.63 2.63 0 01-.277.251c-.083.064-.146.09-.19.08a3.614 3.614 0 01-.123-.029.482.482 0 01-.164-.179.803.803 0 01-.084-.284 3.079 3.079 0 01-.026-.296c-.002-.083 0-.2.004-.35.005-.151.007-.253.007-.307 0-.185.004-.386.011-.602l.019-.515c.004-.126.007-.26.007-.402 0-.14-.009-.251-.026-.332A1.165 1.165 0 008.113.37a.392.392 0 00-.15-.175.842.842 0 00-.244-.1 4.85 4.85 0 00-.984-.094C5.831-.009 5.25.05 4.993.176a.984.984 0 00-.277.22c-.088.107-.1.165-.036.174.291.044.498.15.619.314l.044.088c.034.064.068.175.102.336.034.16.056.338.066.533.024.355.024.66 0 .912-.025.254-.048.45-.07.591a1.185 1.185 0 01-.186.504.128.128 0 01-.036.037.546.546 0 01-.197.036c-.068 0-.15-.034-.248-.102a1.725 1.725 0 01-.302-.281 3.736 3.736 0 01-.354-.5 8.676 8.676 0 01-.408-.76l-.116-.211a17.926 17.926 0 01-.3-.595A11.4 11.4 0 012.96.716a.484.484 0 00-.175-.233L2.748.46a.785.785 0 00-.284-.11L.466.366C.262.366.124.412.051.505L.022.549A.236.236 0 000 .665c0 .054.015.12.044.197.291.687.609 1.349.951 1.986.343.638.64 1.151.893 1.54.253.39.51.757.773 1.103.262.346.436.567.52.664.086.098.153.17.201.22l.182.175c.117.116.288.256.514.42.226.162.476.323.751.481.275.158.594.287.959.387.364.1.719.14 1.064.12h.838c.17-.014.299-.067.386-.16l.03-.037a.495.495 0 00.054-.135.748.748 0 00.026-.2c-.005-.21.01-.398.047-.566.037-.168.078-.294.124-.38a.932.932 0 01.28-.32.588.588 0 01.06-.027c.116-.038.253 0 .41.114.159.114.307.255.446.423.138.168.304.356.499.566.194.21.364.365.51.467l.146.088c.097.058.223.112.379.16.155.049.292.061.408.037l1.866-.03c.185 0 .328-.03.43-.09.102-.061.163-.129.182-.201a.567.567 0 00.004-.248.91.91 0 00-.05-.194 1.018 1.018 0 00-.048-.091c-.243-.438-.707-.976-1.393-1.613l-.014-.015-.007-.007-.008-.007h-.007a8.388 8.388 0 01-.59-.6c-.151-.194-.185-.39-.102-.59.058-.152.276-.47.655-.957z"/></svg><svg viewBox="0 0 12 12" id="yt" xmlns="http://www.w3.org/2000/svg"><g clip-path="url(#dclip0_117_180)"><path d="M11.383 6.915v3.538c0 .22-.046.422-.14.607a1.571 1.571 0 01-.384.49 1.84 1.84 0 01-.56.33c-.212.08-.441.12-.688.12h-7.23c-.241 0-.468-.04-.68-.12a1.827 1.827 0 01-.56-.33 1.62 1.62 0 01-.385-.49 1.324 1.324 0 01-.14-.607V6.915c0-.21.047-.41.14-.6.095-.19.225-.355.385-.491.16-.137.348-.248.56-.331a1.86 1.86 0 01.68-.125h7.23c.457.001.899.162 1.249.456.162.136.289.3.383.491.094.19.14.39.14.6zm-8.518 3.932v-3.73h.887v-.565H1.358V7.1h.767v3.747h.74zm.362-8.68L2.236 0h.862l.494 1.62L4.083 0h.862l-.929 2.167v2.524h-.79V2.167zm2.33 5.497h-.74v1.992c0 .144 0 .256.006.333.005.079-.006.128-.032.15-.023.085-.085.148-.191.189-.102.04-.182-.017-.237-.174-.012-.02-.013-.073-.007-.156.005-.084.007-.193.007-.327l-.015-2.007h-.742l.017 1.975c0 .156-.003.285-.008.39a.938.938 0 00.008.238l.032.278a.312.312 0 00.153.238c.091.055.195.084.301.082.117 0 .23-.02.34-.058.11-.039.211-.09.305-.156a.685.685 0 00.205-.214l-.014.394.612.016V7.664zM4.879 2.5c0-.296.029-.541.08-.733.067-.2.17-.342.316-.428a.912.912 0 01.556-.162c.199 0 .364.033.5.097a.697.697 0 01.33.282c.065.098.114.207.146.331.03.134.047.314.047.54v.846c0 .307-.017.527-.047.662a.948.948 0 01-.163.41.716.716 0 01-.313.267 1.05 1.05 0 01-.46.096c-.176 0-.339-.027-.483-.081a.5.5 0 01-.298-.233 1.131 1.131 0 01-.163-.364 3.391 3.391 0 01-.048-.66v-.87zm.661 1.313c0 .086.033.163.098.23a.324.324 0 00.462.003.309.309 0 00.1-.233V2.063a.33.33 0 00-.1-.245.318.318 0 00-.23-.101.313.313 0 00-.228.101.332.332 0 00-.102.245v1.749zm2.41 6.125V8.285c0-.317-.112-.543-.337-.677a.52.52 0 00-.259-.065c-.178 0-.381.084-.612.25v-1.24H6v4.263l.612-.016.048-.266c.2.167.379.269.536.306.16.037.293.023.403-.045a.641.641 0 00.258-.33c.06-.153.092-.33.092-.528zm-.893-1.982c.085 0 .16.025.228.077.067.05.1.108.1.172v1.87c0 .065-.033.12-.1.169a.386.386 0 01-.228.073.39.39 0 01-.232-.073c-.066-.049-.098-.104-.098-.169v-1.87c0-.064.033-.122.098-.172a.373.373 0 01.232-.077zm.345-3.594a.472.472 0 01-.04-.134 1 1 0 00-.025-.133 1.234 1.234 0 01-.015-.218v-2.57h.693V3.87c0 .065.023.12.071.17a.268.268 0 00.194.072.28.28 0 00.194-.073.221.221 0 00.082-.17V1.307H9.2v3.289h-.82l.015-.266a1.3 1.3 0 01-.218.25.523.523 0 01-.282.08.547.547 0 01-.307-.08.614.614 0 01-.185-.218zm2.885 5.367h-.555v.362a.24.24 0 01-.093.201.343.343 0 01-.22.072h-.116a.313.313 0 01-.212-.072.251.251 0 01-.086-.2v-.767h1.282v-.443c0-.166-.003-.326-.008-.479-.001-.12-.014-.24-.04-.358a.528.528 0 00-.198-.351.906.906 0 00-.386-.18 1.225 1.225 0 00-.452-.017.9.9 0 00-.4.152.829.829 0 00-.313.396c-.065.166-.096.397-.096.693v.992c0 .418.11.717.33.894.204.166.418.25.644.25h.066a.998.998 0 00.67-.322.775.775 0 00.217-.572c-.008-.076-.017-.16-.034-.25zm-.572-.944h-.71l.017-.394c0-.086.032-.156.096-.214a.343.343 0 01.235-.085h.032c.096 0 .178.027.246.08a.269.269 0 01.1.22l-.016.393z"/></g><defs><clipPath id="dclip0_117_180"><path d="M0 0h12v12H0z"/></clipPath></defs></svg></svg>