<svg width="14" height="8" viewBox="0 0 14 8" fill="none" xmlns="http://www.w3.org/2000/svg">
<path d="M12.4131 3.34463C12.6122 3.08688 12.7703 2.88006 12.887 2.72403C13.7276 1.60466 14.092 0.889602 13.9804 0.577851L13.9365 0.504839C13.9074 0.460984 13.8319 0.420711 13.7106 0.384257C13.589 0.34783 13.4336 0.342009 13.2441 0.366057L11.1449 0.380886C11.0963 0.376043 11.0473 0.377175 10.9991 0.384257C10.9505 0.391659 10.9189 0.399086 10.9042 0.406172C10.8896 0.413599 10.8775 0.419552 10.8679 0.424399L10.8388 0.446313C10.8145 0.460826 10.7878 0.486454 10.7586 0.523065C10.7295 0.559651 10.705 0.602057 10.6857 0.65089C10.4573 1.23973 10.1974 1.78732 9.90578 2.29348C9.72594 2.59525 9.56065 2.85704 9.4102 3.07818C9.25953 3.29983 9.13319 3.46282 9.03112 3.56725C8.92911 3.67187 8.83669 3.756 8.75416 3.81905C8.67143 3.88256 8.60834 3.90916 8.56473 3.89949C8.52325 3.89044 8.48193 3.88066 8.44078 3.87015C8.37272 3.82648 8.31797 3.76698 8.27678 3.69139C8.23544 3.61614 8.20759 3.52116 8.19291 3.40671C8.17842 3.29243 8.16975 3.19379 8.16748 3.11092C8.16491 3.02824 8.16619 2.91154 8.17119 2.76048C8.17603 2.60958 8.17842 2.50757 8.17842 2.45389C8.17842 2.26915 8.18213 2.06831 8.18942 1.85167C8.19665 1.63519 8.20278 1.46351 8.20759 1.33695C8.21243 1.21057 8.21482 1.07661 8.21482 0.935406C8.21482 0.794518 8.2063 0.683603 8.18918 0.603189C8.17201 0.522847 8.14639 0.444551 8.11276 0.369613C8.07865 0.294335 8.02889 0.23581 7.96322 0.194562C7.89758 0.153131 7.81626 0.120417 7.71908 0.0958953C7.46138 0.0373695 7.13338 0.00610474 6.73502 0.000968583C5.83112 -0.00838185 5.25041 0.0499597 4.99289 0.176335C4.89085 0.230015 4.79846 0.302869 4.71591 0.395399C4.62836 0.5026 4.61629 0.561099 4.67954 0.57045C4.97117 0.614304 5.17754 0.719082 5.29904 0.884466L5.34283 0.971991C5.37678 1.0355 5.41076 1.14738 5.44487 1.30792C5.47884 1.46849 5.50073 1.64612 5.51054 1.84084C5.53484 2.19611 5.53484 2.50014 5.51054 2.75339C5.48624 3.00662 5.46322 3.20361 5.44134 3.3445C5.41944 3.4857 5.38661 3.59999 5.34298 3.68752C5.2992 3.77536 5.27008 3.82888 5.25543 3.84837C5.24079 3.8677 5.22871 3.87995 5.21906 3.88482C5.15625 3.90898 5.08953 3.92133 5.02224 3.92125C4.95415 3.92125 4.87157 3.88706 4.77437 3.81887C4.67714 3.75102 4.57623 3.6572 4.47193 3.53791C4.36731 3.4188 4.24965 3.25197 4.11831 3.03773C3.98713 2.82383 3.85096 2.57057 3.71012 2.27866L3.59359 2.06684C3.52069 1.93079 3.42104 1.73235 3.2947 1.47202C3.16836 1.21168 3.05648 0.959902 2.95944 0.716343C2.92049 0.614304 2.86221 0.536446 2.7845 0.482766L2.74813 0.460852C2.72383 0.441493 2.68488 0.420711 2.63144 0.398929C2.57747 0.376899 2.52122 0.360953 2.46373 0.351386L0.466494 0.365899C0.262413 0.365899 0.124 0.412335 0.0510992 0.504839L0.0219598 0.548535C0.00723226 0.573031 0 0.612039 0 0.665402C0 0.719082 0.0146486 0.784693 0.043788 0.862394C0.335419 1.54877 0.652508 2.21065 0.995001 2.848C1.33768 3.4857 1.63528 3.99927 1.88796 4.38856C2.14064 4.77817 2.39816 5.14537 2.66068 5.49096C2.9232 5.83656 3.09685 6.05786 3.18183 6.15508C3.2668 6.25262 3.3336 6.32565 3.38223 6.37415L3.56443 6.54951C3.68096 6.66625 3.85238 6.80614 4.07836 6.96928C4.30433 7.1324 4.55446 7.29296 4.8292 7.45095C5.10364 7.60925 5.42327 7.73802 5.78765 7.83798C6.15205 7.93791 6.50677 7.97802 6.85184 7.95837H7.6901C7.86023 7.94386 7.98894 7.89052 8.07638 7.79781L8.1055 7.76138C8.1248 7.73236 8.14316 7.68724 8.1602 7.62645C8.17711 7.56568 8.18584 7.49862 8.18584 7.42577C8.18082 7.21655 8.19678 7.02762 8.23315 6.85997C8.26952 6.69201 8.31087 6.56563 8.3571 6.48021C8.40328 6.39524 8.45541 6.32336 8.51382 6.26484C8.57212 6.20631 8.61331 6.17133 8.63776 6.15909C8.66206 6.14715 8.68158 6.13862 8.69607 6.13346C8.81258 6.09458 8.94986 6.13233 9.10791 6.24661C9.26581 6.36124 9.41406 6.5021 9.55263 6.67007C9.69102 6.83803 9.85744 7.02646 10.0519 7.23586C10.2462 7.44507 10.4163 7.60079 10.5621 7.70299L10.7079 7.79086C10.8051 7.84904 10.9313 7.90256 11.087 7.95142C11.2424 7.99994 11.3786 8.01218 11.4951 7.98785L13.3612 7.9585C13.5458 7.9585 13.6892 7.92821 13.7913 7.86727C13.8933 7.80682 13.954 7.73944 13.9735 7.66659C13.9928 7.59357 13.9941 7.51121 13.9772 7.4185C13.9601 7.32612 13.9431 7.26165 13.9262 7.22522C13.9091 7.18879 13.8933 7.15816 13.8787 7.13398C13.6357 6.69601 13.1716 6.15808 12.4864 5.52057L12.4718 5.50606L12.4646 5.49866L12.4573 5.49154H12.45C12.1389 5.19462 11.9422 4.99505 11.8596 4.89269C11.709 4.69831 11.6749 4.50116 11.7576 4.30162C11.8155 4.1503 12.0341 3.83146 12.4131 3.34463Z" fill="white"/>
</svg>
