<svg width="16" height="16" viewBox="0 0 16 16" fill="none" xmlns="http://www.w3.org/2000/svg">
<path d="M12.2828 15.5774C14.6278 15.6602 16.5128 13.2871 15.8678 11.0992C15.7678 10.7678 15.6778 10.2854 15.2578 10.2221L10.0528 9.42291C9.87784 9.39854 9.69784 9.45702 9.57784 9.58858C9.30784 9.87608 9.09284 10.1977 8.93784 10.5388C7.32784 9.82248 5.90284 8.43858 5.17284 6.86952C5.59284 6.63074 6.35784 6.36274 6.31784 5.78286L5.49784 0.710195C5.43284 0.305746 4.93784 0.213161 4.60784 0.115703C3.34784 -0.205907 1.99784 0.154686 1.07784 1.0513C0.73495 1.3829 0.463286 1.77776 0.278713 2.21282C0.0941398 2.64788 0.00035733 3.11442 0.00284172 3.58519C-0.147158 10.032 5.66284 15.7138 12.2828 15.5774Z" fill="#666666"/>
</svg>
