<svg width="1360" height="556" viewBox="0 0 1360 556" fill="none" xmlns="http://www.w3.org/2000/svg">
<path d="M0 -177H1360V260.005C1360 301.815 1360 322.72 1353.49 339.872C1344.8 362.741 1328.04 381.634 1306.36 392.976C1290.11 401.482 1269.35 403.968 1227.84 408.94L167.838 535.898C116.346 542.065 90.5994 545.149 70.1332 538.744C42.845 530.204 20.5178 510.391 8.79333 484.312C0 464.753 0 438.823 0 386.962V-177Z" fill="#FFC836"/>
<path d="M804 -29C843.333 27.3333 982.2 170.5 1089 174.5C1222.5 179.5 1312.83 152.788 1328.5 92.5C1345 29 1254.5 -29 1147.5 -8.99995C1095.8 0.663576 1022 38.5 1054.5 105.5C1111.76 223.551 1478.13 217.111 1450 360.5C1434.5 439.5 1248.17 450 1225 452.5" stroke="white" stroke-width="32"/>
</svg>
