<svg width="11" height="12" viewBox="0 0 11 12" fill="none" xmlns="http://www.w3.org/2000/svg">
<path d="M10.9721 3.23466C10.9463 2.65005 10.8517 2.24818 10.7163 1.89991C10.5766 1.53026 10.3617 1.19932 10.0801 0.924187C9.80496 0.644782 9.47182 0.427662 9.10645 0.290152C8.7562 0.154748 8.35639 0.0601796 7.77181 0.0344314C7.18285 0.00644782 6.99588 0 5.50214 0C4.00839 0 3.82143 0.00644782 3.23466 0.0322391C2.65007 0.0580304 2.24818 0.152641 1.90002 0.28796C1.53026 0.427662 1.19932 0.64259 0.924187 0.924187C0.644782 1.19929 0.42777 1.53243 0.290152 1.89781C0.154748 2.24818 0.0602011 2.6479 0.0344314 3.23246C0.00646931 3.82143 0 4.00839 0 5.50214C0 6.99588 0.00646931 7.18287 0.0322391 7.76962C0.0580304 8.35422 0.152641 8.75609 0.288067 9.10436C0.42777 9.47402 0.644782 9.80496 0.924187 10.0801C1.19932 10.3595 1.53245 10.5766 1.89783 10.7141C2.24816 10.8495 2.64788 10.9441 3.23257 10.9698C3.81924 10.9957 4.00631 11.0021 5.50005 11.0021C6.9938 11.0021 7.18076 10.9957 7.76754 10.9698C8.35212 10.9441 8.75401 10.8496 9.10217 10.7141C9.46784 10.5727 9.79993 10.3565 10.0772 10.0793C10.3544 9.8021 10.5706 9.47002 10.712 9.10436C10.8474 8.75401 10.942 8.3542 10.9678 7.76962C10.9936 7.18287 11 6.99588 11 5.50214C11 4.00839 10.9978 3.82141 10.9721 3.23466ZM9.98129 7.72664C9.9576 8.26395 9.86735 8.55411 9.79213 8.74754C9.60725 9.22683 9.22685 9.60725 8.74754 9.79213C8.55411 9.86735 8.26187 9.9576 7.72664 9.98118C7.14633 10.0071 6.97231 10.0134 5.50433 10.0134C4.03636 10.0134 3.86014 10.0071 3.28192 9.98118C2.7446 9.9576 2.45445 9.86735 2.26101 9.79213C2.02251 9.70397 1.80541 9.56426 1.62917 9.38158C1.44648 9.20319 1.30678 8.98826 1.21862 8.74973C1.14339 8.5563 1.05314 8.26395 1.02957 7.72883C1.00369 7.14852 0.997327 6.97439 0.997327 5.50642C0.997327 4.03844 1.00369 3.86222 1.02957 3.28411C1.05314 2.74679 1.14339 2.45664 1.21862 2.26321C1.30678 2.02459 1.44648 1.80754 1.63136 1.63126C1.80967 1.44857 2.02459 1.30886 2.26321 1.22081C2.45664 1.14558 2.74898 1.05531 3.28411 1.03165C3.86441 1.00586 4.03855 0.999412 5.50642 0.999412C6.97658 0.999412 7.15061 1.00586 7.72883 1.03165C8.26615 1.05534 8.5563 1.14556 8.74973 1.22079C8.98824 1.30886 9.20536 1.44857 9.38158 1.63126C9.56426 1.80967 9.70397 2.02459 9.79213 2.26321C9.86735 2.45664 9.9576 2.74888 9.98127 3.28411C10.0071 3.86441 10.0135 4.03844 10.0135 5.50642C10.0135 6.97439 10.0071 7.14633 9.98129 7.72664Z" fill="white"/>
<path d="M5.50208 2.6756C3.94175 2.6756 2.67578 3.94148 2.67578 5.50189C2.67578 7.06231 3.94175 8.32819 5.50208 8.32819C7.06245 8.32819 8.32837 7.06231 8.32837 5.50189C8.32837 3.94148 7.06245 2.6756 5.50208 2.6756ZM5.50208 7.33522C4.48981 7.33522 3.6687 6.51424 3.6687 5.50189C3.6687 4.48954 4.48981 3.66856 5.50205 3.66856C6.5144 3.66856 7.33541 4.48954 7.33541 5.50189C7.33541 6.51424 6.51438 7.33522 5.50208 7.33522ZM9.1 2.56384C9.1 2.92822 8.80454 3.22366 8.44009 3.22366C8.07572 3.22366 7.78028 2.92822 7.78028 2.56384C7.78028 2.19941 8.07572 1.90405 8.44011 1.90405C8.80454 1.90405 9.1 2.19938 9.1 2.56384Z" fill="white"/>
</svg>
