<svg width="11" height="13" viewBox="0 0 11 13" fill="none" xmlns="http://www.w3.org/2000/svg">
<path d="M10.9941 3.25502C10.2785 3.25502 9.61817 3.00886 9.08793 2.59359C8.47981 2.11754 8.04289 1.41924 7.88859 0.614385C7.84989 0.412012 7.82956 0.206316 7.82785 0H5.78356V5.80004L5.78111 8.977C5.78111 9.82635 5.24843 10.5465 4.51001 10.7998C4.28883 10.8757 4.05587 10.9078 3.82328 10.8944C3.51566 10.8769 3.2274 10.7805 2.97686 10.6249C2.44368 10.2938 2.08219 9.6931 2.07239 9.00599C2.05696 7.93208 2.8931 7.05653 3.92663 7.05653C4.13064 7.05653 4.32657 7.09112 4.51001 7.15393V4.99875C4.31653 4.969 4.11962 4.95348 3.92051 4.95348C2.78925 4.95348 1.73123 5.44174 0.974934 6.32136C0.403306 6.98609 0.0604273 7.83418 0.00752604 8.72346C-0.0617844 9.89171 0.349915 11.0022 1.14833 11.8216C1.26565 11.9419 1.38884 12.0535 1.51766 12.1565C2.20219 12.7035 3.03906 13 3.92051 13C4.11962 13 4.31653 12.9847 4.51001 12.955C5.33341 12.8283 6.09313 12.437 6.69268 11.8216C7.42938 11.0656 7.83643 10.0618 7.84083 8.99352L7.8303 4.24933C8.18258 4.53146 8.56849 4.76515 8.97846 4.94458C9.61988 5.22558 10.3 5.36799 11 5.36774V3.25451C11.0005 3.25502 10.9946 3.25502 10.9941 3.25502Z" fill="white"/>
</svg>
