<svg width="12" height="12" viewBox="0 0 12 12" fill="none" xmlns="http://www.w3.org/2000/svg">
<g clip-path="url(#clip0_117_180)">
<path d="M11.3829 6.91518V10.4526C11.3829 10.6738 11.3365 10.8753 11.2424 11.0603C11.1484 11.2472 11.0181 11.4134 10.8591 11.5492C10.6936 11.6915 10.5042 11.8033 10.2996 11.8792C10.0866 11.9593 9.85773 12 9.61105 12H2.38054C2.13958 12 1.91261 11.9593 1.70027 11.8792C1.49536 11.8036 1.30566 11.6918 1.14016 11.5492C0.981836 11.4126 0.851441 11.2465 0.756165 11.0603C0.661844 10.8718 0.613893 10.6634 0.616297 10.4526V6.91518C0.616297 6.70538 0.662708 6.50511 0.7568 6.31502C0.850893 6.12429 0.980588 5.95963 1.1408 5.82358C1.30165 5.68689 1.48856 5.57563 1.70091 5.49298C1.91325 5.41033 2.14022 5.36837 2.38117 5.36837H9.61169C10.0682 5.36914 10.5099 5.53025 10.8597 5.82358C11.0218 5.96027 11.149 6.12493 11.2431 6.31502C11.3371 6.50511 11.3829 6.70538 11.3829 6.91518ZM2.86499 10.8474V7.11608H3.75187V6.55216H1.3576V7.10019H2.12496V10.8474H2.86499ZM3.22673 2.16731L2.23558 0H3.09831L3.59166 1.61992L4.0831 0H4.94456L4.01635 2.16731V4.69129H3.22673V2.16731ZM5.5568 7.66411H4.81614V9.65595C4.81614 9.80027 4.81741 9.91216 4.82313 9.98909C4.82822 10.0679 4.81741 10.1175 4.79071 10.1385C4.76846 10.2243 4.70615 10.2873 4.59998 10.3279C4.49762 10.3674 4.41815 10.3114 4.36284 10.1544C4.3514 10.1334 4.35012 10.0806 4.35585 9.99799C4.36093 9.91407 4.36284 9.80535 4.36284 9.67057L4.34758 7.66411H3.60628L3.62345 9.63942C3.62345 9.79454 3.61963 9.92424 3.61455 10.0291C3.60946 10.134 3.61073 10.2129 3.62345 10.2669L3.6546 10.5454C3.65964 10.5943 3.6762 10.6414 3.70295 10.6828C3.72969 10.7241 3.76585 10.7585 3.80846 10.7832C3.89895 10.8382 4.00325 10.8665 4.10917 10.8645C4.22615 10.8645 4.33932 10.8448 4.44867 10.8067C4.55993 10.7685 4.66038 10.717 4.75447 10.6509C4.84793 10.5842 4.91722 10.5117 4.95918 10.4367L4.94456 10.8308L5.5568 10.8467V7.66411ZM4.87908 2.49854C4.87908 2.20291 4.90769 1.95751 4.95982 1.76615C5.02594 1.56652 5.12957 1.42411 5.27516 1.33764C5.42075 1.2302 5.60575 1.17616 5.83145 1.17616C6.02981 1.17616 6.1951 1.20922 6.33116 1.27279C6.46467 1.32683 6.57529 1.42029 6.66112 1.55507C6.72597 1.65298 6.77492 1.7617 6.80671 1.8863C6.83722 2.02045 6.85439 2.20037 6.85439 2.4267V3.27163C6.85439 3.5787 6.83722 3.79868 6.80671 3.93409C6.79399 4.0568 6.74186 4.19412 6.64395 4.34479C6.54795 4.4783 6.44369 4.56731 6.33116 4.61054C6.18696 4.67694 6.02958 4.70976 5.87087 4.70654C5.6954 4.70654 5.53201 4.67984 5.38832 4.6258C5.26225 4.59036 5.15516 4.50679 5.09015 4.39311C5.01482 4.28247 4.95971 4.15935 4.9274 4.02946C4.89624 3.88323 4.87908 3.66517 4.87908 3.3689V2.49854ZM5.54027 3.81203C5.54027 3.89785 5.57269 3.97478 5.63754 4.04217C5.66751 4.07314 5.70336 4.09782 5.74298 4.11477C5.7826 4.13172 5.8252 4.1406 5.86829 4.1409C5.91138 4.14119 5.9541 4.1329 5.99395 4.11649C6.0338 4.10009 6.06998 4.0759 6.10038 4.04535C6.13258 4.01574 6.15814 3.97963 6.17534 3.93941C6.19255 3.89919 6.20102 3.85577 6.20019 3.81203V2.06305C6.20129 2.01758 6.19299 1.97237 6.17581 1.93025C6.15864 1.88814 6.13296 1.85002 6.10038 1.81828C6.07103 1.78663 6.03555 1.76129 5.99609 1.7438C5.95663 1.72631 5.91402 1.71704 5.87087 1.71656C5.82777 1.71687 5.78521 1.72606 5.74583 1.74356C5.70645 1.76106 5.6711 1.7865 5.64199 1.81828C5.60916 1.84992 5.58319 1.88798 5.56569 1.93009C5.54819 1.9722 5.53954 2.01745 5.54027 2.06305V3.81203ZM7.94981 9.93695V8.28461C7.94981 7.968 7.83791 7.74167 7.61285 7.60816C7.53372 7.56439 7.44452 7.54203 7.3541 7.54331C7.17608 7.54331 6.97264 7.6266 6.74186 7.79317V6.55216H6.00056V10.8156L6.61344 10.7997L6.66112 10.5339C6.86011 10.7011 7.04003 10.8029 7.19706 10.8404C7.35664 10.8772 7.48951 10.8626 7.60014 10.7952C7.71076 10.7291 7.79659 10.6191 7.85762 10.4646C7.91865 10.3121 7.94981 10.1347 7.94981 9.93695ZM7.05656 7.95465C7.14239 7.95465 7.21741 7.98008 7.28544 8.03158C7.35219 8.08244 7.38589 8.14029 7.38589 8.20387V10.0743C7.38589 10.1385 7.35219 10.1938 7.28544 10.2428C7.21889 10.2909 7.1387 10.3165 7.05656 10.3159C6.97361 10.3167 6.89254 10.2911 6.82514 10.2428C6.75903 10.1944 6.7266 10.1385 6.7266 10.0743V8.20387C6.7266 8.13966 6.75966 8.08244 6.82514 8.03158C6.89147 7.9807 6.97298 7.9536 7.05656 7.95465ZM7.40178 4.36069C7.38211 4.31838 7.36883 4.27339 7.36236 4.22718C7.35689 4.18236 7.3484 4.13797 7.33693 4.09431C7.32536 4.022 7.32026 3.94881 7.32167 3.8756V1.30649H8.01465V3.86861C8.01465 3.93409 8.03818 3.98877 8.0865 4.03836C8.11241 4.06268 8.14289 4.08161 8.17618 4.09405C8.20946 4.10649 8.24489 4.1122 8.2804 4.11083C8.35606 4.11083 8.42027 4.08604 8.47367 4.03836C8.49912 4.01791 8.51972 3.99209 8.53401 3.96274C8.5483 3.93339 8.55592 3.90125 8.55632 3.86861V1.30649H9.19908V4.59465H8.37895L8.39357 4.3289C8.31791 4.43571 8.24671 4.51963 8.17614 4.57812C8.09168 4.63142 7.99373 4.65944 7.89386 4.65886C7.78598 4.66279 7.67936 4.63469 7.58742 4.57812C7.50928 4.52127 7.44567 4.44677 7.40178 4.36069ZM10.2869 9.72842H9.73185V10.0902C9.73185 10.1766 9.70069 10.2428 9.63902 10.2911C9.57605 10.3399 9.49806 10.3653 9.41842 10.3629H9.30334C9.22612 10.366 9.15047 10.3404 9.091 10.2911C9.06245 10.2662 9.03989 10.2353 9.02503 10.2005C9.01016 10.1657 9.00337 10.128 9.00517 10.0902V9.32408H10.2869V8.88095C10.2869 8.71502 10.2843 8.55481 10.2786 8.40223C10.2777 8.28188 10.2645 8.16195 10.2392 8.04429C10.2223 7.90544 10.1509 7.77899 10.0408 7.69272C9.92836 7.60273 9.79607 7.54083 9.65492 7.51216C9.50658 7.47864 9.35329 7.47303 9.20289 7.49563C9.05031 7.51725 8.91871 7.56747 8.80363 7.64821C8.65995 7.74485 8.55569 7.87709 8.4902 8.04429C8.42536 8.20959 8.39357 8.44101 8.39357 8.73727V9.72906C8.39357 10.1468 8.50483 10.4462 8.7248 10.6229C8.92824 10.7889 9.1425 10.8728 9.36819 10.8728H9.43431C9.68734 10.8575 9.90986 10.7495 10.1038 10.5505C10.2487 10.4055 10.3212 10.2141 10.3212 9.97891C10.3129 9.90262 10.304 9.8187 10.2869 9.72842ZM9.71468 8.78368H9.00581L9.0217 8.39015C9.0217 8.30368 9.05412 8.23375 9.11834 8.17589C9.18305 8.11902 9.2668 8.0886 9.35293 8.0907H9.38536C9.48072 8.0907 9.56273 8.11804 9.63076 8.17144C9.66346 8.19753 9.68962 8.23088 9.70716 8.26884C9.72471 8.30681 9.73316 8.34834 9.73185 8.39015L9.71468 8.78368Z" fill="white"/>
</g>
<defs>
<clipPath id="clip0_117_180">
<rect width="12" height="12" fill="white"/>
</clipPath>
</defs>
</svg>
